<svg width="16" height="17" viewBox="0 0 16 17" fill="none" xmlns="http://www.w3.org/2000/svg">
<path fill-rule="evenodd" clip-rule="evenodd" d="M1.67601 1.5303C1.6095 1.54563 1.50493 1.60721 1.44361 1.66711C1.3495 1.759 1.33231 1.80182 1.33356 1.94125C1.33492 2.09514 1.48287 2.35651 3.48772 5.7463L5.64042 9.38614L5.64056 12.2952C5.64067 15.1412 5.64224 15.2068 5.71207 15.3187C5.75132 15.3816 5.82473 15.4485 5.87518 15.4672C6.11069 15.5546 6.15963 15.5347 8.17064 14.532C9.23975 13.9989 10.1657 13.5213 10.2283 13.4705L10.342 13.3783L10.3518 11.3808L10.3616 9.38321L12.5135 5.74487C14.5175 2.3564 14.6654 2.09514 14.6668 1.94125C14.668 1.80217 14.6508 1.75897 14.5578 1.66815C14.4971 1.60885 14.3845 1.54605 14.3076 1.52862C14.1344 1.48939 1.84634 1.491 1.67601 1.5303ZM13.4347 2.41826C13.4347 2.43607 13.1237 2.96257 11.0602 6.43752L9.48394 9.09202L9.47411 10.9978L9.46431 12.9035L8.03148 13.6173C7.24344 14.0099 6.58446 14.3363 6.56712 14.3426C6.54913 14.3491 6.53147 13.2231 6.526 11.723L6.51638 9.09202L4.94011 6.43752C2.87665 2.96257 2.5656 2.43607 2.5656 2.41826C2.5656 2.41009 5.01115 2.40338 8.00016 2.40338C10.9892 2.40338 13.4347 2.41009 13.4347 2.41826Z" fill="#1B7FF1" stroke="#1B7FF1" stroke-width="0.3"/>
</svg>
